<svg width="21" height="24" viewBox="0 0 21 24" fill="none" xmlns="http://www.w3.org/2000/svg">
    <path d="M20.4273 15.0727L18.3125 12.9578V10.1562C18.3101 8.22019 17.5899 6.35379 16.2911 4.91795C14.9924 3.48212 13.2074 2.57885 11.2812 2.38281V0.78125H9.71875V2.38281C7.79264 2.57885 6.00763 3.48212 4.70888 4.91795C3.41014 6.35379 2.68992 8.22019 2.6875 10.1562V12.9578L0.572656 15.0727C0.426133 15.2191 0.343794 15.4178 0.34375 15.625V17.9688C0.34375 18.176 0.42606 18.3747 0.572573 18.5212C0.719086 18.6677 0.9178 18.75 1.125 18.75H6.59375V19.5312C6.59375 20.5673 7.0053 21.5608 7.73786 22.2934C8.47043 23.0259 9.464 23.4375 10.5 23.4375C11.536 23.4375 12.5296 23.0259 13.2621 22.2934C13.9947 21.5608 14.4062 20.5673 14.4062 19.5312V18.75H19.875C20.0822 18.75 20.2809 18.6677 20.4274 18.5212C20.5739 18.3747 20.6562 18.176 20.6562 17.9688V15.625C20.6562 15.4178 20.5739 15.2191 20.4273 15.0727ZM12.8438 19.5312C12.8438 20.1529 12.5968 20.749 12.1573 21.1885C11.7177 21.6281 11.1216 21.875 10.5 21.875C9.8784 21.875 9.28226 21.6281 8.84272 21.1885C8.40318 20.749 8.15625 20.1529 8.15625 19.5312V18.75H12.8438V19.5312Z" fill="#DEDEDE"/>
</svg>
