<svg width="15" height="15" viewBox="0 0 15 15" fill="none" xmlns="http://www.w3.org/2000/svg">
    <path d="M14.633 7.61759L8.49313 1.48094L8.08159 1.06939C7.98782 0.976238 7.86101 0.923958 7.72883 0.923958C7.59666 0.923958 7.46985 0.976238 7.37608 1.06939L0.824704 7.61759C0.72862 7.7133 0.652683 7.82729 0.601376 7.95283C0.550069 8.07836 0.524431 8.21291 0.525975 8.34852C0.532331 8.90784 0.997903 9.35435 1.55723 9.35435H2.23254V14.5297H13.2251V9.35435H13.9147C14.1865 9.35435 14.4423 9.24788 14.6346 9.05562C14.7292 8.96125 14.8042 8.84904 14.8552 8.72548C14.9062 8.60193 14.9322 8.46948 14.9317 8.33581C14.9317 8.06568 14.8252 7.80985 14.633 7.61759ZM8.61866 13.3856H6.839V10.1441H8.61866V13.3856ZM12.0811 8.21028V13.3856H9.63561V9.76272C9.63561 9.41155 9.35118 9.12712 9.00002 9.12712H6.45765C6.10648 9.12712 5.82205 9.41155 5.82205 9.76272V13.3856H3.37661V8.21028H1.85119L7.73042 2.33581L8.09748 2.70286L13.6081 8.21028H12.0811Z" fill="#F29E39"/>
</svg>
