<svg width="24" height="22" viewBox="0 0 24 22" fill="none" xmlns="http://www.w3.org/2000/svg">
    <path d="M23.0322 10.8222L12.5738 0.37147C12.4985 0.296019 12.4091 0.23616 12.3106 0.195318C12.2121 0.154476 12.1066 0.133453 12 0.133453C11.8934 0.133453 11.7878 0.154476 11.6894 0.195318C11.5909 0.23616 11.5015 0.296019 11.4262 0.37147L0.967761 10.8222C0.663074 11.1269 0.490417 11.5408 0.490417 11.9724C0.490417 12.8687 1.21913 13.5974 2.11542 13.5974H3.21737V21.0547C3.21737 21.5041 3.58046 21.8672 4.02987 21.8672H10.375V16.1797H13.2187V21.8672H19.9701C20.4195 21.8672 20.7826 21.5041 20.7826 21.0547V13.5974H21.8846C22.3162 13.5974 22.7301 13.4273 23.0347 13.1201C23.667 12.4853 23.667 11.457 23.0322 10.8222Z" fill="#3B9DF6"/>
</svg>
