<svg width="18" height="21" viewBox="0 0 18 21" fill="none" xmlns="http://www.w3.org/2000/svg">
    <path d="M2.14286 20.625C2.14286 20.625 0.428574 20.625 0.428574 18.9375C0.428574 17.25 2.14286 12.1875 9 12.1875C15.8571 12.1875 17.5714 17.25 17.5714 18.9375C17.5714 20.625 15.8571 20.625 15.8571 20.625H2.14286ZM9 10.5C10.364 10.5 11.6721 9.96663 12.6366 9.01723C13.601 8.06782 14.1429 6.78016 14.1429 5.4375C14.1429 4.09484 13.601 2.80717 12.6366 1.85777C11.6721 0.908369 10.364 0.375 9 0.375C7.63603 0.375 6.32792 0.908369 5.36345 1.85777C4.39898 2.80717 3.85714 4.09484 3.85714 5.4375C3.85714 6.78016 4.39898 8.06782 5.36345 9.01723C6.32792 9.96663 7.63603 10.5 9 10.5Z" fill="#DEDEDE"/>
</svg>
