<svg width="19" height="19" viewBox="0 0 19 19" fill="none" xmlns="http://www.w3.org/2000/svg">
<path d="M8.20915 16.0842C9.95658 16.0838 11.6537 15.4989 13.0302 14.4225L17.3579 18.75L18.75 17.358L14.4222 13.0305C15.4992 11.6539 16.0846 9.95655 16.085 8.20876C16.085 3.86645 12.5517 0.333344 8.20915 0.333344C3.86661 0.333344 0.333313 3.86645 0.333313 8.20876C0.333313 12.5511 3.86661 16.0842 8.20915 16.0842ZM8.20915 2.3022C11.4668 2.3022 14.116 4.95129 14.116 8.20876C14.116 11.4662 11.4668 14.1153 8.20915 14.1153C4.95151 14.1153 2.30227 11.4662 2.30227 8.20876C2.30227 4.95129 4.95151 2.3022 8.20915 2.3022Z" fill="#757575"/>
</svg>
