<svg width="25" height="15" viewBox="0 0 25 15" fill="none" xmlns="http://www.w3.org/2000/svg">
<path d="M8.625 13.3438C8.625 13.0868 8.72706 12.8404 8.90874 12.6587C9.09042 12.4771 9.33682 12.375 9.59375 12.375H15.4062C15.6632 12.375 15.9096 12.4771 16.0913 12.6587C16.2729 12.8404 16.375 13.0868 16.375 13.3438C16.375 13.6007 16.2729 13.8471 16.0913 14.0288C15.9096 14.2104 15.6632 14.3125 15.4062 14.3125H9.59375C9.33682 14.3125 9.09042 14.2104 8.90874 14.0288C8.72706 13.8471 8.625 13.6007 8.625 13.3438ZM4.75 7.53125C4.75 7.27432 4.85206 7.02792 5.03374 6.84624C5.21542 6.66456 5.46182 6.5625 5.71875 6.5625H19.2812C19.5382 6.5625 19.7846 6.66456 19.9663 6.84624C20.1479 7.02792 20.25 7.27432 20.25 7.53125C20.25 7.78818 20.1479 8.03458 19.9663 8.21626C19.7846 8.39794 19.5382 8.5 19.2812 8.5H5.71875C5.46182 8.5 5.21542 8.39794 5.03374 8.21626C4.85206 8.03458 4.75 7.78818 4.75 7.53125ZM0.875 1.71875C0.875 1.46182 0.977065 1.21542 1.15874 1.03374C1.34042 0.852065 1.58682 0.75 1.84375 0.75H23.1562C23.4132 0.75 23.6596 0.852065 23.8413 1.03374C24.0229 1.21542 24.125 1.46182 24.125 1.71875C24.125 1.97568 24.0229 2.22208 23.8413 2.40376C23.6596 2.58544 23.4132 2.6875 23.1562 2.6875H1.84375C1.58682 2.6875 1.34042 2.58544 1.15874 2.40376C0.977065 2.22208 0.875 1.97568 0.875 1.71875Z" fill="white"/>
</svg>
