<svg width="23" height="22" viewBox="0 0 23 22" fill="none" xmlns="http://www.w3.org/2000/svg">
    <path d="M20.5 5.16667V2.83333C20.5 1.5465 19.4909 0.5 18.25 0.5H3.625C1.76425 0.5 0.25 2.07033 0.25 4V18C0.25 20.5678 2.26825 21.5 3.625 21.5H20.5C21.7409 21.5 22.75 20.4535 22.75 19.1667V7.5C22.75 6.21317 21.7409 5.16667 20.5 5.16667ZM18.25 15.6667H16V11H18.25V15.6667ZM3.625 5.16667C3.33534 5.15323 3.06183 5.02444 2.86144 4.80712C2.66104 4.5898 2.5492 4.30069 2.5492 4C2.5492 3.69931 2.66104 3.4102 2.86144 3.19288C3.06183 2.97556 3.33534 2.84677 3.625 2.83333H18.25V5.16667H3.625Z" fill="#DEDEDE"/>
</svg>
